<?xml version="1.0" encoding="UTF-8" standalone="no"?><!DOCTYPE svg PUBLIC "-//W3C//DTD SVG 1.1//EN" "http://www.w3.org/Graphics/SVG/1.1/DTD/svg11.dtd"><svg width="100%" height="100%" viewBox="0 0 500 300" version="1.1" xmlns="http://www.w3.org/2000/svg" xmlns:xlink="http://www.w3.org/1999/xlink" xml:space="preserve" xmlns:serif="http://www.serif.com/" style="fill-rule:evenodd;clip-rule:evenodd;stroke-linejoin:round;stroke-miterlimit:2;"><g><path d="M122.687,49.076l47.412,0l-23.567,138.494c-2.865,20.24 -11.483,36.437 -25.855,48.59c-14.371,12.153 -31.261,18.045 -50.67,17.676c-19.501,-0.37 -34.589,-6.1 -45.263,-17.191c-10.675,-11.09 -15.735,-26.71 -15.18,-46.857l47.828,0.138l-0,9.566c0.369,10.998 5.684,16.636 15.942,16.913c13.863,0.277 22.551,-9.843 26.063,-30.36l23.29,-136.969Z" style="fill:#d8dfea;fill-rule:nonzero;"/><path d="M219.314,213.494l82.208,-0l-6.515,37.43l-129.621,0l34.935,-201.848l47.551,0l-28.558,164.418Z" style="fill:#d8dfea;fill-rule:nonzero;"/><path d="M476.337,182.163c-1.201,14.14 -5.846,26.71 -13.933,37.708c-8.086,10.998 -18.715,19.454 -31.885,25.369c-13.17,5.915 -27.426,8.734 -42.768,8.457c-21.072,-0.462 -37.661,-7.255 -49.769,-20.379c-12.107,-13.124 -18.715,-30.915 -19.824,-53.373c-0.832,-14.972 0.809,-31.285 4.922,-48.937c4.112,-17.653 10.813,-33.018 20.101,-46.095c9.288,-13.078 20.24,-22.875 32.856,-29.39c12.615,-6.516 26.409,-9.635 41.381,-9.358c21.997,0.37 39.395,6.978 52.195,19.824c12.801,12.847 19.755,30.546 20.864,53.096l-47.273,-0.138c0.185,-12.292 -2.033,-21.072 -6.654,-26.34c-4.621,-5.268 -11.923,-8.087 -21.904,-8.457c-24.954,-0.832 -40.157,18.577 -45.61,58.226c-2.495,17.929 -3.743,30.73 -3.743,38.401c-0.462,22.735 7.948,34.426 25.231,35.073c11.183,0.37 20.101,-2.379 26.756,-8.248c6.654,-5.869 10.906,-14.164 12.754,-24.885l46.303,-0.554Z" style="fill:#d8dfea;fill-rule:nonzero;"/></g></svg>